<?xml version="1.0" standalone="no"?><!DOCTYPE svg PUBLIC "-//W3C//DTD SVG 1.1//EN" "http://www.w3.org/Graphics/SVG/1.1/DTD/svg11.dtd"><svg class="icon" width="200px" height="200.00px" viewBox="0 0 1024 1024" version="1.1" xmlns="http://www.w3.org/2000/svg"><path d="M16 81.6h992.001v704h-992z" fill="#FDBF5E" /><path d="M1008 801.6H16c-9.6 0-16-6.4-16-16v-704c0-9.6 6.4-16 16-16h992.001c9.601 0 16.001 6.4 16.001 16v704c-0.002 9.6-6.402 16-16.003 16zM32 769.6h960v-672H32v672z" fill="#193651" /><path d="M584 16c-40 0-71.999 48.001-71.999 88.002v681.6c0-40 32-88 72-88H931.2V16H584z" fill="#FFFFFF" /><path d="M511.999 801.6c-9.601 0-16-6.4-16-16V104C496 56 534.398 0 584 0H931.2c9.6 0 16 6.4 16 16v681.6c0 9.6-6.4 16-16 16H584c-30.398 0-56 40-56 72 0 9.6-6.4 16-16.001 16zM584.001 32C555.2 32 528 72 528 104v604.799c14.4-16.001 35.2-27.2 56-27.2h331.201v-649.6h-331.2z" fill="#193651" /><path d="M576 88c0-4.799 3.201-8 8-8h283.2v553.6H576V88z" fill="#E1E6E9" /><path d="M440 16c40 0 71.999 48.001 71.999 88.002v681.6c0-40-32-88-72-88H92.8V16H440z" fill="#FFFFFF" /><path d="M511.999 801.6c-9.601 0-16-6.4-16-16 0-32-27.201-72-56.002-72H92.8c-9.6 0-16-6.4-16-16V16c0-9.6 6.4-16 16-16H440c49.6 0 88 56.001 88 104v681.6c0 9.6-6.4 16-16.001 16z m-403.198-120h331.2c20.8 0 41.6 11.2 56.001 27.2V104c0-32-27.2-72-56-72H108.8v649.6z" fill="#193651" /><path d="M448 633.6H156.8V80H440c4.799 0 8 3.201 8 8v545.6z" fill="#E1E6E9" /><path d="M448 265.6V88c0-4.799-3.201-8-8-8H156.8v185.6H448z" fill="#2EA2DB" /><path d="M270.4 131.2V216l65.6-43.2z" fill="#FFFFFF" /><path d="M627.2 148.799h188.799v32h-188.8z m0 92.8h188.799v32h-188.8z m64 92.8h124.799v32h-124.8z m64 94.4h60.801v32h-60.8z m0 92.8h60.801v32h-60.8zM208 334.4h108.8v32H208z m0 94.4h60.8v32H208z" fill="#193651" /><path d="M454.4 718.4v232a57.358 57.358 0 0 0 57.599 57.6 57.358 57.358 0 0 0 57.6-57.6v-232h-115.2z" fill="#FFFFFF" /><path d="M569.6 702.4H454.4c-9.601 0-16.001 6.4-16.001 16.002V950.4c0 40 33.6 73.6 73.6 73.6 40 0 73.6-33.6 73.6-73.6v-232c0-9.6-8-16-15.999-16z m-16 248c0 22.4-19.2 41.6-41.601 41.6-22.4 0-41.6-19.2-41.6-41.6v-216h83.199v216z" fill="#193651" /><path d="M311.999 529.6a200 200 0 1 0 400 0 200 200 0 1 0-400 0z" fill="#FFFFFF" /><path d="M511.999 745.6c-118.4 0-216-97.6-216-216s97.6-215.999 216-215.999S728 411.201 728 529.601 630.4 745.6 512 745.6z m0-400c-100.8 0-184 83.2-184 184s83.2 184 184 184 184-83.2 184-184c0.002-102.4-83.2-184-184-184zM496 769.6h32v32h-32z m0 78.402h32v32h-32z" fill="#193651" /><path d="M496 924.8h32v32h-32z m-32-361.6L444.8 608h-33.6l83.2-192H528l84.8 192h-33.6L560 563.2h-96z m81.6-28.8L511.998 456l-35.2 78.4h68.8z" fill="#193651" /></svg>