<?xml version="1.0" standalone="no"?><!DOCTYPE svg PUBLIC "-//W3C//DTD SVG 1.1//EN" "http://www.w3.org/Graphics/SVG/1.1/DTD/svg11.dtd"><svg class="icon" width="200px" height="200.00px" viewBox="0 0 1024 1024" version="1.1" xmlns="http://www.w3.org/2000/svg"><path d="M123.2 16h259.2v992.001H123.2z" fill="#2EA2DB" /><path d="M382.4 1024H123.2c-9.602 0-16.002-6.4-16.002-16V16C107.2 6.4 113.6 0 123.2 0h259.2c9.602 0 16.002 6.4 16.002 16v992.001c0 9.6-8 15.999-16.001 15.999z m-243.2-32h227.201V32h-227.2v960z" fill="#193651" /><path d="M187.2 905.6h131.2V944H187.2z m0-472h131.2v38.399H187.2z m0 96h131.2V568H187.2z m0-449.6h131.2v297.6H187.2z" fill="#FFFFFF" /><path d="M382.4 16h259.2v992.001H382.4z" fill="#F16051" /><path d="M641.6 1024H382.4c-9.601 0-16.001-6.4-16.001-16V16c0-9.6 6.4-16 16-16H641.6c9.601 0 16.001 6.4 16.001 16v992.001c-0.002 9.6-6.402 15.999-16 15.999z m-243.2-32h227.201V32h-227.2v960z" fill="#193651" /><path d="M446.4 905.6h131.199V944h-131.2z m0-472h131.199v38.399h-131.2z m0 96h131.199V568h-131.2z m0-449.6h131.199v297.6h-131.2z" fill="#FFFFFF" /><path d="M641.6 16h259.2v992.001H641.6z" fill="#FDBF5E" /><path d="M900.8 1024H641.6c-9.6 0-16-6.4-16-16V16c0-9.6 6.4-16 16-16h259.2c9.602 0 16.002 6.4 16.002 16v992.001c-0.002 9.6-6.402 15.999-16.001 15.999zM657.6 992h227.2V32H657.6v960z" fill="#193651" /><path d="M705.6 905.6h131.2V944H705.6z m0-472h131.2v38.399H705.6z m0 96h131.2V568H705.6z m0-449.6h131.2v297.6H705.6z" fill="#FFFFFF" /><path d="M755.2 126.4h32v32h-32zM755.2 212.8h32v32h-32z m0 86.4h32v32h-32zM496 126.4h32v32h-32zM496 212.8h32v32h-32z m0 86.4h32v32h-32zM236.8 126.4h32v32h-32zM236.8 212.8h32v32h-32z m0 86.4h32v32h-32z" fill="#193651" /></svg>