<?xml version="1.0" standalone="no"?><!DOCTYPE svg PUBLIC "-//W3C//DTD SVG 1.1//EN" "http://www.w3.org/Graphics/SVG/1.1/DTD/svg11.dtd"><svg class="icon" width="200px" height="200.00px" viewBox="0 0 1024 1024" version="1.1" xmlns="http://www.w3.org/2000/svg"><path d="M184 1008h656l-62.4-86.401H246.4z" fill="#E1E6E9" /><path d="M184 1024c-6.4 0-11.2-3.199-14.4-8s-1.601-11.2 1.6-16.001l62.4-86.4c3.202-4.8 8.001-6.4 12.8-6.4h531.201c4.8 0 9.601 3.2 12.8 6.4l62.401 86.4c3.201 4.8 4.8 11.2 1.6 16s-8 8.001-14.4 8.001H184z m70.399-86.4l-38.4 54.4h593.6l-38.4-54.4H254.4z" fill="#193651" /><path d="M337.6 921.599h348.8l-76.8-119.998H414.4z" fill="#CFD0D1" /><path d="M686.4 937.6H337.6c-6.4 0-11.2-3.201-14.4-8s-3.201-11.2 0-16.001l76.8-120c3.2-4.8 8-8.001 12.799-8.001h195.199c4.8 0 11.2 3.2 12.8 8l76.8 120a14.53 14.53 0 0 1 0 16.001c0.001 4.8-6.399 8-11.198 8z m-320.001-32h289.6l-56.001-88H422.4l-56.001 88z" fill="#193651" /><path d="M927.999 16h-832c-44.8 0-80 35.202-80 80.001v574.4h992V95.999c0-44.8-35.198-79.998-80-79.998z" fill="#2EA2DB" /><path d="M1008 686.4H16c-9.6 0-16-6.4-16-16.001v-574.4C0 43.199 43.199 0 95.999 0h832c52.8 0 95.999 43.199 95.999 95.999v574.4c0.002 8-6.398 16-15.999 16z m-976-32h960V96c0-35.2-28.8-64-63.999-64H95.999c-35.2 0-64 28.801-64 64V654.4z" fill="#193651" /><path d="M80 606.4V95.999c0-9.6 6.4-16 16.001-16h832c9.6 0 16 6.4 16 16v510.4h-864z m-64 63.999v51.2c0 44.799 35.202 80 80.001 80h832c44.8 0 80-35.201 80-80v-51.2h-992z" fill="#FFFFFF" /><path d="M927.999 817.6h-832C43.199 817.6 0 774.4 0 721.6v-51.199c0-9.601 6.4-16 16-16h992.001c9.601 0 16.001 6.399 16.001 16v51.2C1024 774.4 980.8 817.598 928 817.598z m-896-131.2v35.2c0 35.201 28.801 64 64 64h832c35.2 0 64-28.8 64-64v-35.2h-960z" fill="#193651" /><path d="M649.6 207.999c0-28.8 24-52.8 52.8-52.8H374.402c-28.8 0-52.8 24-52.8 52.8s24 52.8 52.8 52.8h328c-28.801 0-52.8-24-52.8-52.8z" fill="#FFFFFF" /><path d="M702.4 276.8H374.402c-38.4 0-68.8-30.4-68.8-68.801s30.399-68.8 68.8-68.8h328c9.6 0 16 6.399 16 16s-6.4 16-16 16c-20.8 0-36.8 16.002-36.8 36.8s16.001 36.8 36.8 36.799c9.6 0 16 6.4 16 16-0.002 9.602-8.002 16.002-16 16.002z m-328-105.6c-20.801 0-36.8 16-36.8 36.799s16.001 36.8 36.8 36.8h268.799c-6.4-11.2-11.2-24-11.2-36.8s3.201-25.6 11.2-36.8h-268.8z" fill="#193651" /><path d="M393.6 592V260.798h-19.2c-28.801 0-52.8-24-52.8-52.8v384h72z" fill="#FFFFFF" /><path d="M393.6 608h-72c-9.602 0-16.002-6.4-16.002-16V207.998c0-9.601 6.4-16 16.001-16s16.001 6.399 16.001 16c0 20.8 16.001 36.8 36.8 36.8h19.2c9.6 0 16 6.399 16 16v331.2c0 9.601-6.4 16.001-16 16.001z m-56-32h40V276.8h-3.2c-12.8 0-25.6-3.201-36.8-11.2V576z" fill="#193651" /><path d="M393.6 260.799h307.198v331.2H393.6z" fill="#FFFFFF" /><path d="M700.8 608H393.6c-9.602 0-16.002-6.4-16.002-16V260.798c0-9.601 6.4-16 16.001-16h307.2c9.6 0 16 6.399 16 16v331.2c0 9.601-6.4 16.001-15.999 16.001z m-291.2-32h275.2V276.8H409.6V576z" fill="#193651" /><path d="M550.4 372.8l-40-32-40 32v-96h80z" fill="#F16051" /><path d="M603.2 721.6h32v32h-32z m-107.2 0h32v32h-32z m-107.2 0h32v32h-32z" fill="#193651" /></svg>