<?xml version="1.0" standalone="no"?><!DOCTYPE svg PUBLIC "-//W3C//DTD SVG 1.1//EN" "http://www.w3.org/Graphics/SVG/1.1/DTD/svg11.dtd"><svg class="icon" width="200px" height="200.00px" viewBox="0 0 1024 1024" version="1.1" xmlns="http://www.w3.org/2000/svg"><path d="M276.8 252.8a252.8 252.8 0 1 0 505.6 0 252.8 252.8 0 1 0-505.6 0z" fill="#FDBF5E" /><path d="M425.6 214.4h206.401v163.2h-206.4z" fill="#FFFFFF" /><path d="M646.4 392H411.2V200h235.2v192zM440 363.2h177.599v-136h-177.6v136z" fill="#193651" /><path d="M121.6 1009.6H904c32-20.8 54.4-56.001 54.4-97.6H68.8c0 41.6 20.8 76.8 52.8 97.6z" fill="#FFFFFF" /><path d="M905.6 1024h-784c-3.2 0-4.799 0-8-1.6-38.4-24-60.8-65.6-60.8-110.4a14.34 14.34 0 0 1 14.4-14.4h889.6a14.34 14.34 0 0 1 14.4 14.4c0 44.8-22.4 86.4-60.8 110.4 0 1.6-3.2 1.6-4.8 1.6z m-779.2-28.8h774.4c24-16.002 38.4-41.601 43.2-68.802H84.8C88 953.601 104 979.2 126.4 995.2z" fill="#193651" /><path d="M865.6 377.6H161.601a57.358 57.358 0 0 0-57.6 57.6V912h819.2V435.2a57.362 57.362 0 0 0-57.601-57.6z" fill="#2EA2DB" /><path d="M923.2 926.4H104A14.34 14.34 0 0 1 89.6 912V435.2c0-40 31.999-72 71.999-72h703.999c40 0 72 32 72 72V912a14.336 14.336 0 0 1-14.399 14.4z m-804.8-28.8h790.4V435.2a43.02 43.02 0 0 0-43.2-43.2H161.601a43.02 43.02 0 0 0-43.2 43.2v462.4z" fill="#193651" /><path d="M161.601 435.2H865.6v419.199H161.601z" fill="#FFFFFF" /><path d="M219.2 609.6H488v187.201H219.2z" fill="#E1E6E9" /><path d="M312 657.599v91.202l83.2-44.802z" fill="#F16051" /><path d="M260.801 524.799h28.8v28.8h-28.8z m78.4 0H368v28.8h-28.8z m76.799 0h28.8v28.8H416zM587.2 609.6H616v28.8h-28.8z m76.799 0h28.8v28.8H664z m78.402 0h28.8v28.8h-28.8zM587.2 673.6h184v28.8h-184z m0 64h184v28.8h-184z" fill="#193651" /><path d="M763.199 524.799l-52.8-27.198-52.8 27.198V377.6h105.6z" fill="#FFFFFF" /><path d="M777.6 550.4l-67.201-36.798-67.2 36.799V363.2h134.4v187.2zM710.398 480l38.4 20.8V391.999h-76.8v108.8l38.4-20.8z" fill="#193651" /><path d="M529.6 120l-188.8 80 188.8 81.6L718.4 200z" fill="#E1E6E9" /><path d="M529.6 297.6L304 201.6 529.6 105.6l225.6 95.999L529.6 297.6zM376 200l152 65.6L680 200l-150.4-63.999-153.6 64z" fill="#193651" /><path d="M348.8 211.2h28.8V296h-28.8z" fill="#193651" /></svg>