<?xml version="1.0" standalone="no"?><!DOCTYPE svg PUBLIC "-//W3C//DTD SVG 1.1//EN" "http://www.w3.org/Graphics/SVG/1.1/DTD/svg11.dtd"><svg class="icon" width="200px" height="200.00px" viewBox="0 0 1024 1024" version="1.1" xmlns="http://www.w3.org/2000/svg"><path d="M354.403 334.395a334.395 334.395 0 1 0 668.79 0 334.395 334.395 0 1 0-668.79 0z" fill="#FDBF5E" /><path d="M101.606 193.598h30.399v30.4h-30.4z m79.997 0h30.399v30.4h-30.399z m80 0H292v30.4h-30.399zM843.995 707.191h30.4v30.4h-30.4z m0 80h30.4v30.399h-30.4z m0 79.999h30.4v30.399h-30.4z" fill="#193651" /><path d="M864.795 511.993c-95.997 95.998-254.395 95.998-351.996 0-97.598-97.599-97.598-255.997 0-351.997 97.599-97.598 255.997-97.598 351.996 0 97.599 96 97.599 254.398 0 351.997z" fill="#FFFFFF" /><path d="M688.798 598.392c-70.398 0-137.598-27.2-187.198-76.798-102.398-102.398-102.398-270.397 0-372.797C551.198 99.2 618.398 72 688.798 72s137.598 27.2 187.199 76.798c49.598 49.599 76.798 116.798 76.798 187.199s-27.2 137.598-76.798 187.198c-49.6 47.998-116.8 75.198-187.199 75.198z m0-497.593c-62.4 0-121.599 24-166.398 68.8-91.198 91.199-91.198 239.998 0 331.197 44.799 44.799 102.4 68.8 166.398 68.8 62.4 0 121.6-24 166.399-68.8 44.799-44.802 68.798-102.4 68.798-166.4 0-62.401-24-121.6-68.8-166.4-44.8-43.198-103.999-67.197-166.397-67.197z" fill="#193651" /><path d="M485.352 334.643a203.2 203.2 0 1 0 406.398 0 203.2 203.2 0 1 0-406.398 0z" fill="#E1E6E9" /><path d="M725.597 347.195s0-11.2-28.8 4.8c0 0-4.8 8-17.6-12.8l-9.6 4.799s-14.4-12.8-19.2-1.6c0 0-1.6 8-16 1.6 0 0-22.401 4.8-8 33.6 0 0-16.002 30.398 27.2 35.2l19.199 3.2 14.4 27.2s8-3.2 11.2 11.2c0 0 14.4 3.201 16 23.999 0 0 23.999 20.8 36.798 3.2l-9.6-3.2-3.201-12.8-8 4.8-1.601-14.4-8-1.601s28.8-17.6 14.4-44.8c0 0-19.2-4.798 3.2-16 0 0 11.2-6.4-3.2-28.8 0 0 4.8-14.4 0-17.6-1.595-3.196-9.595 0.003-9.595 0.003z m84.799-174.397c1.6 9.601 9.6 17.6 9.6 17.6 1.601 19.199-31.999 6.4-31.999 6.4 1.6 20.8-27.2 14.4-27.2 14.4-57.598 1.6-41.6 48-41.6 48-11.199 35.2 28.8 52.799 28.8 52.799 24 11.199 30.4-24 30.4-24 22.4 9.602 28.8 0 28.8 0l3.2 11.2c3.202 11.2 25.6 12.8 28.801 17.599 3.201 4.8-12.8 30.399 11.2 35.2 25.599 4.8 23.998 20.8 23.998 20.8l16.001 3.201c8-44.799 3.2-92.799-20.8-135.997-17.601-28.803-36.8-51.203-59.201-67.202zM535.2 375.995l19.2 12.8c19.199 12.8 19.199-14.4 11.199-22.4-8-8-8-25.6 16-32 24-6.4 9.601-9.6 16-44.799 4.8-33.6 27.2-20.8 25.6-38.399-1.6-17.6-12.8-46.4-25.6-17.6s-14.4 19.2-8-16-11.199 11.2-44.798 28.8c-16.001 8-25.6 0-32-9.6-11.199 20.8-19.2 41.6-22.4 65.599 3.2 11.2 6.4 25.6 11.199 46.4 8 35.2 33.6 27.2 33.6 27.2z" fill="#2EA2DB" /><path d="M16.805 756.79v107.199c0 23.999 19.2 44.799 44.8 44.799h593.592c23.999 0 44.799-19.2 44.799-44.799v-107.2H16.806z" fill="#E1E6E9" /><path d="M655.199 923.188H60.006c-32 0-59.2-27.2-59.2-59.199v-107.2a14.34 14.34 0 0 1 14.4-14.4H698.4a14.34 14.34 0 0 1 14.4 14.4v107.2c1.599 32-25.601 59.2-57.6 59.2zM31.205 771.19v92.799c0 16 12.8 30.399 30.4 30.399h593.592c16 0 30.398-12.8 30.398-30.399V771.19H31.205z" fill="#193651" /><path d="M655.199 369.595H60.006c-24 0-44.8 19.2-44.8 44.8v340.794H698.4V414.394c1.599-23.999-19.201-44.799-43.2-44.799z" fill="#F16051" /><path d="M655.199 355.195H60.006c-32 0-59.2 27.2-59.2 59.2v340.794a14.34 14.34 0 0 0 14.4 14.4H698.4a14.34 14.34 0 0 0 14.4-14.4V414.394c1.599-31.999-25.601-59.199-57.6-59.199z m30.398 385.596H31.205V414.394c0-16 12.8-30.398 30.4-30.398h593.592c16 0 30.398 12.8 30.398 30.398v326.397z" fill="#193651" /><path d="M76.004 430.395h564.792v267.198H76.004zM448.801 907.19H268.002l-30.399 102.397h239.998z" fill="#FFFFFF" /><path d="M477.601 1023.988H237.603c-4.8 0-9.6-1.601-11.199-6.4-3.2-3.201-3.2-8-1.6-12.8l30.398-100.8c1.6-6.4 8-11.199 14.4-11.199h179.199c6.4 0 12.8 4.8 14.4 11.2l30.399 100.799c1.6 4.8 0 9.6-1.6 12.8-4.8 4.799-9.6 6.4-14.399 6.4z m-220.798-30.401h201.596l-20.8-72H279.201l-22.398 72z" fill="#193651" /><path d="M500 1023.988H216.802a14.34 14.34 0 0 1-14.4-14.4 14.34 14.34 0 0 1 14.4-14.4H500a14.34 14.34 0 0 1 14.4 14.4 14.34 14.34 0 0 1-14.4 14.4z" fill="#193651" /><path d="M328.802 831.99a28.8 28.8 0 1 0 57.6 0 28.8 28.8 0 1 0-57.6 0zM244.003 831.99a19.2 19.2 0 1 0 38.4 0 19.2 19.2 0 1 0-38.4 0zM434.4 831.99a19.2 19.2 0 1 0 38.4 0 19.2 19.2 0 1 0-38.4 0z" fill="#CFD0D1" /><path d="M296.802 473.594h281.596v30.398H296.802z m0 75.2h281.596v30.398H296.802z m0 73.599h281.596v30.399H296.802z" fill="#193651" /><path d="M165.604 596.793l-12.8 28.8h-22.4l54.4-124.8h22.4l54.4 124.799h-20.8l-12.8-28.8h-62.4z m52.8-19.201l-22.4-51.2-22.4 51.2h44.8z" fill="#F16051" /></svg>