<?xml version="1.0" standalone="no"?><!DOCTYPE svg PUBLIC "-//W3C//DTD SVG 1.1//EN" "http://www.w3.org/Graphics/SVG/1.1/DTD/svg11.dtd"><svg class="icon" width="200px" height="200.00px" viewBox="0 0 1024 1024" version="1.1" xmlns="http://www.w3.org/2000/svg"><path d="M944 208v544H576l-64 64-64-64H80V208H0v624h64v128l128-128h832V208z" fill="#FF5F5C" /><path d="M576 336h192v224H576z" fill="#FFC252" /><path d="M496 208h32v528h-32zM272 432h-32V272c0-8.544-3.328-16.576-9.376-22.624-12.096-12.096-33.152-12.096-45.248 0A31.782 31.782 0 0 0 176 272v160h-32V272c0-17.088 6.656-33.168 18.752-45.248 24.176-24.192 66.336-24.192 90.496 0C265.344 238.832 272 254.912 272 272v160z" fill="#34303D" /><path d="M160 304h96v32h-96z m688 384h-32c0-26.464-21.536-48-48-48h-16V64h16c44.112 0 80 35.888 80 80v544z m-64-78.384a79.754 79.754 0 0 1 32 14.416V144c0-20.864-13.376-38.656-32-45.264v510.88zM768 768v-32c26.464 0 48-21.536 48-48h32c0 44.112-35.888 80-80 80z" fill="#34303D" /><path d="M512 838.624L441.376 768H64V128h390.624L512 185.376 569.376 128H720v32H582.624L512 230.624 441.376 160H96v576h358.624L512 793.376 569.376 736H928V160h-96v-32h128v640H582.624z" fill="#34303D" /><path d="M832 272h48v32h-48z m0-64h48v32h-48z m0 128h48v32h-48z m0 128h48v32h-48z m0-64h48v32h-48z m0 128h48v32h-48z m0 64h48v32h-48z m0 64h48v32h-48zM304 208h144v32H304z m0 64h144v32H304z m272 0h144v32H576z m0-64h144v32H576zM304 336h144v32H304z m0 64h144v32H304z m-160 64h304v32H144z m0 64h304v32H144z m0 128h304v32H144z m432 0h144v32H576z m0-64h144v32H576z m-288 0h32v32h-32z m64 0h32v32h-32z m64 0h32v32h-32z" fill="#34303D" /></svg>