<?xml version="1.0" standalone="no"?><!DOCTYPE svg PUBLIC "-//W3C//DTD SVG 1.1//EN" "http://www.w3.org/Graphics/SVG/1.1/DTD/svg11.dtd"><svg class="icon" width="200px" height="200.00px" viewBox="0 0 1024 1024" version="1.1" xmlns="http://www.w3.org/2000/svg"><path d="M1008 54.4v588.8H550.4V54.4h142.4l-8 40h188.8l-9.6-40z" fill="#FDBF5E" /><path d="M1008 659.2H550.4c-9.6 0-16-6.4-16-16.001V54.4c0-9.6 6.4-16 16-16h144c4.8 0 9.601 1.6 12.8 6.4 3.201 3.2 4.8 8 3.201 12.8l-6.4 20.8h148.8L848 59.2c-1.6-4.8 0-9.601 3.2-12.8 3.202-3.201 8.001-6.4 12.8-6.4h144c9.601 0 16.001 6.4 16.001 16.001v588.798c-0.002 8-8.002 14.4-16.003 14.4z m-441.6-32H992V70.4H884.8l4.8 19.2c1.6 4.799 0 9.6-3.202 12.799-3.2 3.201-8 6.4-12.8 6.4H684.8c-4.8 0-9.6-1.6-12.8-6.4-3.2-3.201-4.799-8-3.2-12.8l4.799-19.2h-107.2l0.001 556.8z" fill="#193651" /><path d="M614.4 158.4H944v420.8H614.4z m88-142.4H856l17.6 78.4H684.8z" fill="#FFFFFF" /><path d="M873.6 110.4H684.801c-4.8 0-9.6-1.601-12.8-6.4-3.2-3.202-4.799-8.001-3.2-12.8L686.4 12.8c1.6-8 8-12.8 16-12.8h152c8.001 0 14.401 4.8 16.002 12.8L888 88c1.6 1.601 1.6 4.8 1.6 6.4-0.002 7.999-6.402 16-16 16zM704 78.4h148.798l-9.6-46.4H715.195L704 78.4z m-27.201 200h32v32h-32zM763.199 278.4h32v32h-32z m86.4 0h32v32h-32z" fill="#193651" /><path d="M646.4 697.6l-100.8-54.401-142.4 326.4-142.399-326.4-100.8 54.4C70.4 742.4 16 812.8 16 888v19.2c0 56 44.8 100.8 100.8 100.8h574.4c56.001 0 100.8-44.8 100.8-100.8v-19.2C792 812.8 739.2 742.4 646.4 697.599z" fill="#E1E6E9" /><path d="M691.2 1024H116.8C52.8 1024 0 971.2 0 907.2V888c0-81.6 57.6-156.799 155.199-204.8l99.2-54.4c3.201-1.6 8-3.2 12.8-1.6 4.8 1.6 8 4.8 9.6 8l128.002 292.801 128-292.8c1.6-4.8 4.8-8.001 9.601-8.001 4.8-1.6 9.601-1.6 12.8 1.6l100.8 54.4c96 48.001 155.202 123.2 155.202 204.8v19.2C808 971.2 756.799 1024 691.199 1024zM254.398 665.6l-84.8 46.4C83.2 753.6 32 819.2 32 887.999v19.2c0 46.4 38.4 84.8 84.8 84.8h574.4c46.4 0 84.8-38.4 84.8-84.8v-19.2c0-68.801-51.2-134.4-137.6-176l-84.8-46.4L419.2 976c-3.201 6.4-8 9.601-14.4 9.601s-12.8-3.2-14.4-9.6l-136-310.4z" fill="#193651" /><path d="M359.999 964.8H449.6l-17.6-200 25.6-38.4-52.8-52.8-52.8 52.8 25.6 38.4z" fill="#F16051" /><path d="M604.8 761.6l-22.4-99.2-35.2-19.2-142.4 326.4-142.4-326.4-35.2 19.2-22.4 99.2 55.999-4.8-32 43.2 152 193.599h46.4L579.2 800l-32-43.2z" fill="#CFD0D1" /><path d="M564.799 419.199c0 86.4-72 224-163.2 224s-163.199-136-163.199-224c0-86.4 72-163.2 163.2-163.2s163.199 76.802 163.199 163.2z" fill="#FFFFFF" /><path d="M401.6 659.2c-102.4 0-179.2-145.6-179.2-240.001 0-97.6 81.6-179.2 179.2-179.2 95.999 0 179.2 81.6 179.2 179.2 0 94.4-76.8 240-179.2 240z m0-387.2c-80 0-147.201 67.2-147.201 147.2s67.2 208 147.2 208 147.201-128 147.201-208c0-78.4-67.2-147.2-147.2-147.2z" fill="#193651" /><path d="M433.6 241.6C364.797 225.597 331.2 264 328 275.2c-1.601 1.6-3.202 1.6-6.4 3.2-102.4-22.4-83.2 140.8-83.2 140.8 0 27.201 6.4 57.6 19.2 89.6 0-24 1.6-131.2 59.2-115.2 0 0 67.2 52.8 160 1.6 0 0 57.6-22.401 68.801 110.399 12.798-28.799 92.798-217.6-112.002-264z" fill="#F16051" /><path d="M257.6 524.799c-6.4 0-12.8-3.201-14.4-9.601-12.8-32-20.8-65.6-20.8-94.4-1.601-14.401-9.602-104 31.999-142.4 11.2-9.6 30.4-20.8 60.8-16 14.4-20.8 54.4-49.6 120-35.201 64 14.4 108.8 43.199 131.2 88 27.2 49.6 24 115.201-6.4 195.2l1.601 1.6c-3.201 8-12.8 12.8-20.8 9.6-8-3.2-12.8-12.799-9.601-20.8l1.6-3.2c27.2-70.4 30.4-126.4 8-168.001-19.2-35.201-56-59.2-110.399-70.4-59.2-12.8-84.8 16.001-88 22.401-1.6 3.201-4.8 6.4-8 8-1.601 1.601-3.202 1.601-4.8 3.202-3.201 1.6-8 3.2-11.2 1.6-17.599-3.2-30.399-1.6-41.6 8-27.2 24-25.6 92.8-22.401 116.8v1.6c0 24 6.4 54.4 17.6 83.2 3.2 8 0 17.599-9.602 20.8H257.6zM404.8 985.6c-6.4 0-12.8-3.2-14.4-9.6L254.401 665.6 169.599 712c-8 4.799-17.599 1.6-22.4-6.4s-1.601-17.6 6.4-22.401l100.8-54.4c3.201-1.601 8-3.202 12.8-1.601 4.8 1.6 8 4.8 9.6 8l128.002 292.8 128-292.8c1.6-4.8 4.8-8 9.601-8 4.8-1.6 9.601-1.6 12.8 1.6l100.8 54.4c8.001 4.8 11.2 14.401 6.4 22.402s-14.4 11.199-22.4 6.4l-84.8-46.4L419.203 976c-3.203 6.4-8.003 9.6-14.402 9.6z m264-787.2h222.4v32H668.8z m7.999 240h32v32h-32zM763.199 438.4h32v32h-32z m86.4 0h32v32h-32z m-180.799-80h222.4v32H668.8z" fill="#193651" /></svg>