<?xml version="1.0" standalone="no"?><!DOCTYPE svg PUBLIC "-//W3C//DTD SVG 1.1//EN" "http://www.w3.org/Graphics/SVG/1.1/DTD/svg11.dtd"><svg class="icon" width="200px" height="200.00px" viewBox="0 0 1024 1024" version="1.1" xmlns="http://www.w3.org/2000/svg"><path d="M16 81.6h800.001v448h-800z" fill="#FDBF5E" /><path d="M815.999 545.6H16.001C6.4 545.6 0 539.2 0 529.597V81.601C0 72 6.4 65.6 16 65.6h800.001c9.601 0 16 6.4 16 16v448c-0.001 9.6-8.002 16-16.002 16z m-784-32H800v-416H32v416z" fill="#193651" /><path d="M344 16c40 0 72 48.001 72 88.002v425.6c0-40-32-88-72-88H110.4V16H344z" fill="#FFFFFF" /><path d="M416 545.6c-9.601 0-16-6.4-16-16.002 0-32-27.201-72-56.002-72H110.4c-9.6 0-16-6.4-16-16V16C94.4 6.4 100.8 0 110.399 0h235.2c48 0 86.4 56.001 86.4 104v425.6c0.002 9.6-6.398 16-16 16z m-289.6-120h219.2c20.801 0 41.601 11.2 56.002 27.201V104c0-32-27.2-72-56.001-72H126.4v393.602z" fill="#193651" /><path d="M489.6 16c-40 0-73.6 48.001-73.6 88.002v425.6c0-40 32-88 72-88h235.199V16H489.6z" fill="#FFFFFF" /><path d="M416 545.6c-9.601 0-16-6.4-16-16.002V104C400 56.001 438.4 0 488 0h235.199c9.6 0 16 6.4 16 16v425.602c0 9.6-6.4 16-16 16H489.6c-30.399 0-56 40-56 72-1.6 9.597-8 15.997-17.6 15.997zM489.6 32c-30.399 0-57.6 40-57.6 72v348.799c14.401-16 35.201-27.2 56.002-27.2h219.2v-393.6H489.6z" fill="#193651" /><path d="M480 80h179.2v97.6H480z m0 276.8h179.2v20.8H480z m0-49.601h179.2v20.8H480z m0-47.999h179.2V280H480z m0-49.6h179.2v20.8H480z m-305.6 91.199h179.201v20.8h-179.2z m0-54.398h179.201v20.8h-179.2z m0-56.001h179.201v20.8h-179.2z m0-54.4h179.201v20.8h-179.2z m0-56h179.201v20.8h-179.2z" fill="#E1E6E9" /><path d="M16 648h992.001v360h-992z" fill="#FFFFFF" /><path d="M1008 1024H16c-9.6 0-16-6.4-16-16V648c0-9.6 6.4-16 16-16h992.001c9.601 0 16.001 6.4 16.001 16v360c-0.002 9.6-6.402 16-16.003 16zM32 992h960V664.001H32v328z" fill="#193651" /><path d="M80 712h52.8v28.8H80z m91.2 0H224v28.8h-52.8z m89.599 0h52.8v28.8h-52.8zM352 712h52.8v28.8H352z m89.599 0h52.8v28.8h-52.8z m89.6 0H584v28.8h-52.8z m91.2 0h52.8v28.8h-52.8z m89.6 0h52.8v28.8H712z m89.6 0h52.8v28.8h-52.8z m91.2 0h52.8v28.8h-52.8z" fill="#F16051" /><path d="M80 784h52.8v59.2H80z m91.2 0H224v59.2h-52.8z m89.599 0h52.8v59.2h-52.8zM352 784h52.8v59.2H352z m89.599 0h52.8v59.2h-52.8z m89.6 0H584v59.2h-52.8z m91.2 0h52.8v59.2h-52.8z m89.6 0h52.8v59.2H712z m89.6 0h52.8v59.2h-52.8z m91.2 0h52.8v59.2h-52.8zM80 884.8h52.8V944H80z m91.2 0H224V944h-52.8z m89.599 0h52.8V944h-52.8z m451.2 0h52.8V944H712z m89.602 0h52.8V944h-52.8z m91.2 0h52.8V944h-52.8z m-540.8 0h323.2V944H352z" fill="#E1E6E9" /><path d="M169.6 352h31.999v32h-32z m75.2 0h32v32h-32z m75.2 0h32v32h-32zM960 664c-9.6 0-16-6.4-16-16v-422.4c0-17.6-14.4-32-32-32h-95.999c-9.6 0-16-6.4-16-16.001s6.4-16.001 16-16.001h96c35.2 0 63.998 28.8 63.998 64v422.4c0 9.602-6.4 16.002-15.998 16.002z" fill="#193651" /></svg>