<?xml version="1.0" standalone="no"?><!DOCTYPE svg PUBLIC "-//W3C//DTD SVG 1.1//EN" "http://www.w3.org/Graphics/SVG/1.1/DTD/svg11.dtd"><svg class="icon" width="200px" height="200.00px" viewBox="0 0 1024 1024" version="1.1" xmlns="http://www.w3.org/2000/svg"><path d="M416 484.8a304 304 0 1 0 608 0 304 304 0 1 0-608 0z" fill="#F16051" /><path d="M600 65.6H72a57.358 57.358 0 0 0-57.6 57.6v777.599a57.358 57.358 0 0 0 57.6 57.6h528a57.358 57.358 0 0 0 57.599-57.6v-777.6c0-32-27.2-57.6-57.6-57.6z" fill="#FFFFFF" /><path d="M600 972.8H72c-40 0-72-32.001-72-72V123.2c0-40 32-72 72-72h528c40 0 72 32 72 72v777.599c0 40-33.6 72.002-72 72.002zM72 80a43.02 43.02 0 0 0-43.2 43.2v777.599A43.02 43.02 0 0 0 72 943.998h528a43.02 43.02 0 0 0 43.199-43.2V123.2A43.02 43.02 0 0 0 599.999 80H72z" fill="#193651" /><path d="M72 180.8h528v614.4H72z" fill="#2EA2DB" /><path d="M238.4 123.2h28.8V152h-28.8z m83.2 0h28.8V152h-28.8z m81.6 0H432V152h-28.8z" fill="#193651" /><path d="M299.2 873.6a36.8 36.8 0 1 0 73.599 0 36.8 36.8 0 1 0-73.598 0z" fill="#FFFFFF" /><path d="M336 924.8c-28.801 0-51.2-22.4-51.2-51.2 0-28.8 22.401-51.199 51.2-51.199s51.2 22.4 51.2 51.2c0 28.798-24 51.199-51.2 51.199z m0-73.6c-12.8 0-22.401 9.6-22.401 22.4s9.6 22.401 22.4 22.401 22.402-9.6 22.402-22.4S347.199 851.2 336 851.2z" fill="#193651" /><path d="M392 608v-33.6l-33.6-6.4c-3.2-11.2-6.4-22.4-12.8-32l19.2-28.8-23.999-24-28.8 19.2c-9.601-6.4-20.8-11.2-32-12.8l-6.4-33.6H240l-6.4 33.6c-11.2 3.201-22.401 6.4-32 12.8l-25.6-17.6-23.999 24 19.2 28.8c-6.4 9.602-11.2 20.801-12.8 32l-33.6 6.4v32l33.6 6.4c3.201 11.2 6.4 22.4 12.8 32l-19.2 28.8 24 24 28.8-19.2c9.601 6.4 20.8 11.2 32 12.8l6.4 33.6h33.6l6.4-33.6c11.2-3.201 22.4-6.4 32-12.8l28.8 19.2 24-24-19.2-28.8c6.4-9.601 11.199-20.8 12.8-32L392 608z m-134.4 30.4c-27.2 0-48-20.801-48-48.001s20.8-48 48-48 48 20.8 48 48-20.8 48-48 48z" fill="#FFFFFF" /><path d="M467.2 361.6l-8.001-25.6-27.2 1.6c-4.8-8-9.601-16-17.6-22.4l8-25.6-22.4-12.8-17.6 20.8c-8-3.2-17.599-3.2-27.2-3.2l-12.8-24-25.6 6.4 3.202 27.2c-8 4.8-16.001 9.601-22.4 17.6l-25.6-8.001-12.8 22.4 20.8 17.6c-3.201 8-3.201 17.6-3.201 27.2l-24 12.8 6.4 25.6 27.2-1.6c4.8 8 9.602 16 17.6 22.4l-8 25.6 22.4 12.8 17.6-20.8c8 3.2 17.599 3.2 27.2 3.2l12.8 24 25.6-6.4-1.6-27.2c8-4.8 16-9.601 22.4-17.6l25.6 8 12.8-22.4-20.8-17.6c3.2-8 3.2-17.599 3.2-27.2l24-12.8z m-97.6 52.8c-20.8 6.4-41.6-6.4-48-27.2s6.4-41.601 27.2-48.001 41.6 6.4 48 27.2c6.4 20.8-6.4 43.201-27.2 48z" fill="#FFFFFF" /><path d="M907.2 310.4h-376v275.2h48V688l171.2-102.4h156.8z" fill="#FDBF5E" /><path d="M571.199 700.8c-4.8-3.2-8-8-8-12.8v-86.4h-33.6a14.34 14.34 0 0 1-14.401-14.4V310.4a14.34 14.34 0 0 1 14.4-14.4h376a14.34 14.34 0 0 1 14.4 14.4v275.2a14.34 14.34 0 0 1-14.4 14.4h-152l-169.6 99.2c-1.598 3.2-7.998 3.2-12.8 1.6z m-25.6-129.601h33.6a14.34 14.34 0 0 1 14.4 14.4v76.8L744 574.397c1.6-1.6 4.8-1.6 8-1.6h142.4V324.8h-348.8V571.2z" fill="#193651" /><path d="M636.8 528h-48V368h260.8v160H736l-99.2 59.2z" fill="#FFFFFF" /><path d="M728 471.999h-17.599v-9.601c0-4.8 0-8 1.6-9.601s3.202-4.8 6.4-8l11.2-11.2c3.2-3.2 3.2-6.4 3.2-9.6s-1.6-8.001-3.2-9.602c-3.201-3.2-6.4-3.2-9.601-3.2-4.8 0-8 1.6-9.601 3.2-3.201 3.201-4.8 6.4-4.8 9.601h-19.2c1.601-9.6 4.8-17.6 11.2-22.4 6.4-4.8 14.4-8.001 24-8.001s17.599 3.201 23.999 8c6.4 4.8 9.6 12.8 9.6 22.401 0 6.4-1.6 11.2-4.799 16.001-1.6 3.201-3.2 4.8-4.8 4.8l-4.799 4.799-4.8 4.8-3.2 3.2c-1.6 1.6-3.201 6.4-3.201 9.601v4.8H728z m-8 35.2c-3.201 0-6.4-1.6-8-3.2-3.201-1.601-3.201-4.8-3.201-8s1.6-6.4 3.2-8.001c3.202-1.6 4.8-3.201 8.001-3.201s6.4 1.6 8 3.2c3.201 1.601 3.201 4.8 3.201 8.001s-1.6 6.4-3.2 8C726.4 505.6 723.198 507.2 720 507.2z" fill="#193651" /></svg>