<?xml version="1.0" standalone="no"?><!DOCTYPE svg PUBLIC "-//W3C//DTD SVG 1.1//EN" "http://www.w3.org/Graphics/SVG/1.1/DTD/svg11.dtd"><svg class="icon" width="200px" height="200.00px" viewBox="0 0 1024 1024" version="1.1" xmlns="http://www.w3.org/2000/svg"><path d="M925.109 347.205h-480.1l-11.165 240.847H162.691v336.549H972.96V395.054c0-25.52-20.736-47.849-47.851-47.849z" fill="#2EA2DB" /><path d="M925.109 331.254h-480.1c-7.976 0-15.951 6.38-15.951 15.951l-9.571 224.898h-255.2c-9.571 0-15.951 6.38-15.951 15.951v336.55c0 9.57 6.38 15.95 15.95 15.95H972.96c9.571 0 15.951-6.38 15.951-15.95v-529.55c0-35.089-28.711-63.8-63.802-63.8z m31.902 575.803H178.642V604.003h255.202c7.976 0 15.951-6.38 15.951-15.95l9.572-224.899H925.11c17.544 0 31.9 14.356 31.9 31.9v512.003z" fill="#193651" /><path d="M433.844 411.006v177.046h-207.35v303.054H909.16v-480.1z" fill="#FFFFFF" /><path d="M494.456 833.685v57.42h181.83v-57.42h330.17v92.512c0 43.064-35.092 79.75-79.752 79.75H208.947c-43.065 0-79.751-35.09-79.751-79.75v-92.512h365.26z" fill="#FFFFFF" /><path d="M1006.456 817.734h-330.17c-9.57 0-15.95 6.38-15.95 15.951v41.472H510.404v-41.472c0-9.57-6.38-15.95-15.95-15.95H130.79c-9.57 0-15.95 6.38-15.95 15.95v92.512c0 52.635 43.064 95.7 95.7 95.7h717.757c52.635 0 95.7-43.065 95.7-95.7v-92.512c-1.591-7.975-9.567-15.95-17.542-15.95z m-15.952 108.463c0 35.09-28.71 63.8-63.8 63.8H208.947c-35.091 0-63.8-28.711-63.8-63.8v-76.56h333.357v41.47c0 9.572 6.38 15.952 15.952 15.952h181.83c9.572 0 15.952-6.38 15.952-15.951v-41.471h298.269l-0.003 76.56z" fill="#193651" /><path d="M862.904 903.866h31.9v31.9h-31.9z m-86.13 0h31.9v31.9h-31.9z m-449.796 0h31.9v31.9h-31.9z m-86.131 0h31.9v31.9h-31.9z" fill="#193651" /><path d="M697.022 718.843h159.502v31.9H697.022z m0-84.535h159.502v31.9H697.022z m0-84.536h159.502v31.9H697.022z m0-84.535h159.502v31.9H697.022z" fill="#CFD0D1" /><path d="M524.76 388.674l-81.347-43.064-114.842 264.773L213.73 345.61l-81.346 43.064C57.416 425.36 14.35 482.781 14.35 543.39v15.951c0 44.66 36.685 81.347 81.347 81.347h465.744c44.66 0 81.347-36.685 81.347-81.347v-15.95c0.002-60.61-43.062-118.03-118.029-154.717z" fill="#E1E6E9" /><path d="M561.447 655.043H97.296C43.065 655.043 0 611.977 0 557.748v-15.951C0 474.806 47.851 412.6 127.602 372.726l79.751-43.065c3.191-1.596 7.976-3.191 12.76-1.596 4.785 1.596 7.976 4.785 9.571 7.976l100.487 231.278L430.658 336.04c1.595-4.784 4.784-7.976 9.57-7.976 4.785-1.595 9.572-1.595 12.76 1.596l81.347 43.065c79.751 38.28 126.007 102.08 126.007 169.07v15.952c-1.6 54.229-44.666 97.295-98.895 97.295z m-226.494-31.9h226.494c36.684 0 65.395-30.304 65.395-65.395v-15.951c0-54.231-41.47-106.867-110.055-140.363l-66.992-35.09-108.462 248.822c0 4.786-1.595 7.977-6.38 7.977zM205.758 366.346l-65.396 35.09C71.776 434.933 30.307 487.569 30.307 541.8v15.95c0 36.685 30.304 65.396 65.395 65.396h226.493c-3.19-1.595-6.38-4.784-7.975-7.975L205.758 366.346z" fill="#193651" /><path d="M293.482 605.597h71.776l-14.354-162.691L371.64 412.6l-43.067-43.067-41.47 43.067 19.14 30.305z" fill="#F16051" /><path d="M491.264 439.717l-17.544-79.752-28.711-15.95-116.436 264.773-114.84-264.774-28.71 15.951-17.545 79.752 46.255-3.191-27.115 35.09 124.41 156.312h36.685L470.53 471.617l-25.52-35.091z" fill="#CFD0D1" /><path d="M457.769 163.777c0 70.18-59.016 180.237-130.791 180.237-73.371 0-130.791-110.055-130.791-180.237S255.202 31.39 326.977 31.39c73.372 0.002 130.792 62.207 130.792 132.387z" fill="#FFFFFF" /><path d="M326.978 359.965c-84.536 0-146.742-119.626-146.742-196.186 0-79.751 66.99-148.336 146.742-148.336S473.72 84.03 473.72 163.78c0 78.155-62.207 196.186-146.742 196.186z m0-312.624c-62.207 0-114.842 52.636-114.842 116.436 0 62.206 54.23 164.286 114.842 164.286 62.206 0 114.842-102.08 114.842-164.286S389.184 47.34 326.978 47.34z" fill="#193651" /><path d="M352.498 20.226c-55.827-12.76-82.94 17.544-86.131 27.115-1.596 0-3.191 1.596-4.785 1.596-82.94-19.14-66.99 114.842-66.99 114.842 0 22.33 6.38 47.85 15.95 71.775 0-19.14 1.596-106.866 47.851-92.51 0 0 54.231 43.064 130.791 0 0 0 47.851-17.545 55.827 89.32 7.973-22.332 73.369-175.452-92.513-212.138z" fill="#F16051" /><path d="M210.542 251.503c-6.38 0-12.76-3.19-14.355-9.57-11.165-27.116-15.951-54.232-15.951-76.56-1.596-12.76-7.976-86.132 27.115-118.032 9.571-7.975 25.52-17.544 49.445-14.355C269.556 15.44 303.05-6.89 355.686 5.87c52.636 11.165 89.32 36.685 108.463 71.776 22.331 41.47 20.735 95.7-4.785 159.502l-1.595 1.595c-3.191 7.976-12.76 12.76-20.736 9.571-7.975-3.19-12.76-12.76-9.57-20.735l1.595-3.191c22.33-55.827 23.924-100.487 6.38-133.982-14.356-27.116-44.66-46.256-87.727-55.827-44.66-9.57-65.395 11.165-66.99 17.545-1.596 3.19-3.192 6.38-7.976 7.975-1.596 0-3.191 1.596-4.785 1.596-1.595 3.19-4.784 4.784-9.57 3.19-12.76-3.19-23.925-1.595-30.305 4.785-20.736 19.14-19.14 73.371-17.545 90.916v1.595c0 19.14 4.785 43.065 14.356 66.991 3.19 7.976 0 17.545-9.571 20.736 0.002 1.595-3.187 1.595-4.783 1.595z m118.031 373.234c-6.38 0-12.76-3.191-14.355-9.571L205.756 366.343l-65.396 35.091c-7.975 4.785-17.544 1.596-22.33-6.38-4.785-7.975-1.596-17.544 6.38-22.33l81.346-43.065c3.19-1.596 7.975-3.191 12.76-1.596 4.784 1.596 7.975 4.785 9.57 7.976l100.487 231.278L429.06 336.039c1.595-4.785 4.784-7.976 9.571-7.976 4.784-1.595 9.571-1.595 12.76 1.596l81.347 43.064c7.975 4.785 11.164 14.356 6.38 22.331s-14.356 11.165-22.331 6.38l-65.396-35.09-108.462 248.822c-1.596 6.382-7.976 9.57-14.356 9.57z" fill="#193651" /></svg>