<?xml version="1.0" standalone="no"?><!DOCTYPE svg PUBLIC "-//W3C//DTD SVG 1.1//EN" "http://www.w3.org/Graphics/SVG/1.1/DTD/svg11.dtd"><svg class="icon" width="200px" height="200.00px" viewBox="0 0 1024 1024" version="1.1" xmlns="http://www.w3.org/2000/svg"><path d="M960 88H64c-27.2 0-48.001 20.801-48.001 48.001v595.2c0 27.2 20.8 48.001 48 48.001h896c27.2 0 48-20.8 48-48V135.998c0-25.6-20.8-47.998-47.998-47.998z" fill="#E1E6E9" /><path d="M960 795.2H64c-35.201 0-64-28.8-64-63.999V136c0-35.2 28.8-64 64-64h895.999c35.2 0 63.999 28.802 63.999 64v595.2C1024 766.4 995.199 795.201 960 795.201zM64 104c-17.6 0-32 14.4-32 32v595.2c0 17.599 14.4 31.999 32 31.999h895.999c17.599 0 32-14.4 32-32V136c0-17.6-14.401-32-32-32h-896z" fill="#193651" /><path d="M80 152h864v484.8H80z" fill="#FFFFFF" /><path d="M617.599 779.2h-211.2l-59.2 156.8h329.6z" fill="#CFD0D1" /><path d="M676.799 952h-329.6c-4.8 0-9.6-3.2-12.8-6.4-3.2-4.8-3.2-9.6-1.6-14.4l57.6-156.8c1.6-6.4 8-11.199 14.4-11.199h212.8c6.4 0 12.8 4.8 14.4 11.2L689.6 928c1.6 3.201 1.6 4.8 1.6 8 1.6 7.999-6.4 16-14.4 16zM371.2 920h283.2L608 795.2H417.6L371.2 920z" fill="#193651" /><path d="M713.6 952H310.4c-9.601 0-16-6.4-16-16 0-9.602 6.399-16.002 16-16.002H712c9.6 0 16 6.4 16 16.001C729.6 944 721.6 952 713.6 952z" fill="#193651" /><path d="M808 471.999c-19.2 22.4-46.4 35.2-76.799 35.2-30.399 0-57.599-14.4-76.799-35.2-38.4 27.2-72 70.4-72 121.6h297.6C880 542.4 848.001 499.2 808.001 472z" fill="#2EA2DB" /><path d="M655.999 392a83.2 75.2 90 1 0 150.401 0A83.2 75.2 90 1 0 656 392z" fill="#FDBF5E" /><path d="M417.6 596.8L326.4 448l-92.8 148.8-19.2-11.2 112-182.4 112 182.4z" fill="#193651" /><path d="M499.2 192H152c-17.6 0-32 14.4-32 32v224c0 17.599 14.4 32 32 32h347.2c17.598 0 31.999-14.401 31.999-32V224c0.002-17.6-14.399-32-32-32z" fill="#F16051" /><path d="M206.4 363.2l-9.6 20.8h-16.001l41.6-92.8H238.4L280 384h-16l-9.601-20.8H206.4z m40-14.4l-17.599-38.4-17.599 38.4h35.199z m97.6-35.201c9.601 0 17.6 3.2 24 9.6 6.4 6.4 9.6 16.002 9.6 25.6 0 11.2-3.2 19.2-9.6 27.2-6.4 6.4-14.401 9.602-24 9.602-9.6 0-17.6-3.201-24-11.2v11.2h-14.4v-99.2H320v40c6.4-9.601 14.4-12.802 24-12.802zM320 350.4c0 6.4 1.601 12.8 6.4 16.001 4.8 4.8 9.602 6.4 14.401 6.4 6.4 0 11.2-1.6 16.001-6.4s6.4-9.601 6.4-16-1.6-12.8-6.4-17.6c-4.8-4.8-9.6-6.4-16-6.4s-11.2 1.6-14.401 6.4c-4.802 4.8-6.4 9.599-6.4 17.6z m121.6 35.2c-9.601 0-17.6-3.2-25.6-9.6-6.4-6.4-11.2-16.001-11.2-25.6 0-11.2 3.202-19.2 11.2-27.2 8-6.4 16-9.601 27.2-9.601s19.2 3.2 27.2 11.2l-8 11.199c-6.4-4.8-12.8-8-19.2-8-6.4 0-11.2 1.6-16 6.4s-6.4 9.6-6.4 16 1.6 12.8 6.4 16c4.799 4.8 9.6 6.4 16 6.4s12.8-3.2 19.2-9.6l8 9.6c-6.4 9.602-17.601 12.803-28.8 12.803z" fill="#FFFFFF" /><path d="M374.4 704a19.2 19.2 0 1 0 38.399 0 19.2 19.2 0 1 0-38.4 0zM484.799 704a27.2 27.2 0 1 0 54.4 0 27.2 27.2 0 1 0-54.4 0zM611.199 704a19.2 19.2 0 1 0 38.4 0 19.2 19.2 0 1 0-38.4 0z" fill="#CFD0D1" /><path d="M628.8 227.2h32v32h-32z m86.4 0h32v32h-32z m86.4 0h32v32h-32z" fill="#193651" /></svg>