<?xml version="1.0" standalone="no"?><!DOCTYPE svg PUBLIC "-//W3C//DTD SVG 1.1//EN" "http://www.w3.org/Graphics/SVG/1.1/DTD/svg11.dtd"><svg class="icon" width="200px" height="200.00px" viewBox="0 0 1024 1024" version="1.1" xmlns="http://www.w3.org/2000/svg"><path d="M16 16h992.001v992.001h-992z" fill="#FFFFFF" /><path d="M1008 1024H16c-9.6 0-16-6.4-16-16V16C0 6.4 6.4 0 16 0h992.001c9.601 0 16.001 6.4 16.001 16v992.001C1024 1017.601 1017.6 1024 1008 1024zM32 992h960V32H32v960z" fill="#193651" /><path d="M564.799 80h379.2v379.201H564.8z" fill="#F16051" /><path d="M564.799 564.799h379.2v379.2H564.8z" fill="#FDBF5E" /><path d="M80 80h379.201v379.201h-379.2z" fill="#2EA2DB" /><path d="M80 564.799h379.201v379.2h-379.2z" fill="#E1E6E9" /><path d="M326.4 651.2l-56 56-57.6-56-46.4 46.4 57.6 56-57.6 57.6 46.4 46.4 57.6-57.6 56 57.6 46.4-46.4-56-57.6 56-56z" fill="#FFFFFF" /><path d="M326.4 873.6c-4.799 0-8-1.6-11.199-4.799l-44.8-44.8-46.4 44.8c-6.4 6.4-16 6.4-22.4 0l-46.4-46.4c-6.4-6.4-6.4-16 0-22.4l44.8-44.8-44.8-44.8c-6.4-6.4-6.4-16 0-22.4l46.4-46.4c6.4-6.4 16-6.4 22.4 0l44.8 44.799 44.8-44.8c6.4-6.4 16-6.4 22.4 0l46.4 46.4c3.202 3.201 4.8 6.4 4.8 11.2s-1.6 8-4.8 11.199l-44.799 44.8 46.4 44.8c3.201 3.2 4.8 6.4 4.8 11.199s-1.6 8-4.8 11.199l-46.4 46.4C334.4 872 331.2 873.6 326.401 873.6z m-137.6-62.4l23.998 23.999 44.8-44.8c6.4-6.4 16-6.4 22.4 0l44.8 44.8 24-24-44.8-44.799c-3.201-3.201-4.8-6.4-4.8-11.2s1.601-8 4.8-11.199l44.8-44.8-24-23.999-44.8 44.8c-6.4 6.4-16 6.4-22.4 0l-44.8-44.8-23.999 24 44.8 44.8c6.4 6.4 6.4 16 0 22.4l-44.8 44.798z" fill="#193651" /><path d="M811.2 166.4L753.6 224l-56-57.6-46.4 46.4 56 57.6-56 56 46.4 46.4 56-56 57.6 56 46.4-46.4-57.6-56 57.6-57.6z" fill="#FFFFFF" /><path d="M811.2 388.8c-4.8 0-8-1.6-11.2-4.8l-44.8-44.8-46.4 44.8c-6.4 6.4-16 6.4-22.4 0L640 337.6c-6.4-6.4-6.4-16 0-22.4l44.8-44.8L640 224c-3.201-3.201-4.8-6.4-4.8-11.2 0-4.799 1.6-8 4.8-11.199l46.4-46.402c6.4-6.4 16-6.4 22.4 0l44.8 44.8 44.8-44.8c6.4-6.4 16-6.4 22.4 0l46.4 46.4c6.4 6.4 6.4 16 0 22.4l-44.799 44.8 44.8 44.8c6.4 6.4 6.4 16 0 22.4L822.4 384c-3.201 3.2-8 4.8-11.201 4.8z m-137.6-62.4l24 24 44.799-44.8c6.4-6.4 16-6.4 22.4 0l44.8 44.8 24-24-44.8-44.799c-6.4-6.4-6.4-16 0-22.4l44.8-44.8-24-24-44.8 44.8c-6.4 6.4-16 6.4-22.4 0l-44.8-44.801-24 23.999 44.8 44.8c6.4 6.4 6.4 16 0 22.4l-44.8 44.802z" fill="#193651" /><path d="M838.4 651.2l-112 111.999-57.6-55.999-46.4 46.4 104 104 158.4-160z" fill="#FFFFFF" /><path d="M726.4 873.6c-4.8 0-8-1.6-11.2-4.799l-102.398-104c-6.4-6.4-6.4-16 0-22.4l46.4-46.4c6.4-6.4 16-6.4 22.4 0l44.8 44.8L827.202 640c6.4-6.4 16.001-6.4 22.401 0l46.4 46.4c3.201 3.2 4.8 6.4 4.8 11.2 0 4.799-1.6 8-4.8 11.199l-160 160C734.4 872 729.599 873.6 726.4 873.6z m-81.6-120l80 80L862.398 696l-24-23.999-100.8 100.801c-6.4 6.4-16 6.4-22.4 0l-44.8-44.8-25.6 25.598zM358.4 240L320 201.602l-38.399 38.4c-6.4 6.4-16 6.4-22.4 0l-38.4-38.4-40 38.4c-6.4 6.4-16.001 6.4-22.401 0S152 224 158.4 217.6l49.599-49.6c6.4-6.399 16-6.399 22.4 0l38.4 38.4 38.4-38.4c6.4-6.399 16-6.399 22.4 0l49.6 49.6c6.4 6.4 6.4 16 0 22.4-4.8 6.4-14.399 6.4-20.798 0zM168 329.6h32v32h-32z m86.399 0h32v32h-32z m86.4 0h32v32h-32z" fill="#193651" /></svg>